PathFileType	4	(X/Y/Z)	3_2_7_p0_0-283_filt_butterworth.trc
DataRate	CameraRate	NumFrames	NumMarkers	Units	OrigDataRate	OrigDataStartFrame	OrigNumFrames
59.0	59.0	6	27	m	59.0	212	283
Frame#	Time	RHip			RKnee			RAnkle			RBigToe			RSmallToe			RHeel			LHip			LKnee			LAnkle			LBigToe			LSmallToe			LHeel			Neck			Head			Nose			RShoulder			RElbow			RWrist			RThumb			RIndex			RPinky			LShoulder			LElbow			LWrist			LThumb			LIndex			LPinky			
		X1	Y1	Z1	X2	Y2	Z2	X3	Y3	Z3	X4	Y4	Z4	X5	Y5	Z5	X6	Y6	Z6	X7	Y7	Z7	X8	Y8	Z8	X9	Y9	Z9	X10	Y10	Z10	X11	Y11	Z11	X12	Y12	Z12	X13	Y13	Z13	X14	Y14	Z14	X15	Y15	Z15	X16	Y16	Z16	X17	Y17	Z17	X18	Y18	Z18	X19	Y19	Z19	X20	Y20	Z20	X21	Y21	Z21	X22	Y22	Z22	X23	Y23	Z23	X24	Y24	Z24	X25	Y25	Z25	X26	Y26	Z26	X27	Y27	Z27	
212	3.593220338983051	0.21527130865480498	0.9867080963227707	0.4106024024903446	0.20605900444932976	0.5114153304734582	0.4133543678299589	0.15270694477229507	0.06498740718441394	0.48577419645957437	0.16871754698256888	0.089444421397012	0.2597735329413258	0.21353583964122452	0.08188685791845586	0.30305347398313853	0.14473936196517412	0.011658890929188467	0.5152022828564853	-0.013218787816460987	1.0023362528527933	0.38424410319884933	-0.018099980881757547	0.5206475811206965	0.3911089129410888	-0.017457165510670117	0.09241111595557135	0.4259734136631084	0.02056431261179813	0.0972646011033481	0.2362214396124925	-0.04544606879465389	0.0934263462370431	0.2793659845105453	-0.005324910063522465	0.024849707076730874	0.5016298099586797	0.11545730703699603	1.5299834696735244	0.3915884500384405	0.14015802708300837	1.7743575132967486	0.30074449061817654	0.13788642982951646	1.6386901471155666	0.2760548604194632	0.2896522199334254	1.4413055752679484	0.4022455990600954	0.32422297544585493	1.1746856013448814	0.42966726781609477	0.3178371799787162	0.9976468435118703	0.26075764435696575	0.2509547323588663	0.9293595460025575	0.14806631257603592	0.2680882436178525	0.9092911183775809	0.13416423531632968	0.2821335304931055	0.8499810831307208	0.28062134440710623	-0.0400766787015239	1.4508938183045708	0.3876105432180907	-0.1311912626623597	1.2052587841196538	0.3671411872860812	-0.14870878479051264	0.9847795312306385	0.23275899526777566	-0.09293171223960044	0.8827954765664909	0.19311593567678653	-0.12378859985767751	0.8732560758675718	0.1671721444402134	-0.15743635086664376	0.857230268332866	0.21031827048256194	
213	3.610169491525424	0.21436230698355235	0.9874337980055473	0.4110506530441654	0.2063632980811896	0.5109674349570802	0.41337616508766023	0.1527460377609032	0.06481007152767872	0.4858088166412398	0.16937936589022667	0.08843257205645284	0.26201340856599437	0.21363115420981826	0.08026747137942418	0.30300564798990015	0.14487230413345392	0.012623619424104643	0.5140825968921037	-0.014342823161255097	1.0033033504488487	0.38491631270848026	-0.017668910348914834	0.5189601891198523	0.39212614310677996	-0.017184739723531496	0.0916222915070529	0.42609295885911336	0.02056834561766844	0.09728535097787393	0.23618341025491096	-0.045214468475530546	0.09236510770052675	0.281161158124888	-0.005365037361834478	0.024908193526912356	0.5016955791435993	0.11545552673950599	1.5299479607633888	0.39168164538510986	0.1401761940912945	1.7740665589950455	0.3007880206803498	0.13788064064198158	1.6386610802257477	0.2760651333809925	0.28900124846777514	1.4421420967394472	0.39985171891085936	0.3230050754660716	1.1752513709646857	0.42396936699366133	0.3170058645315066	1.0009532434763142	0.24424800023995233	0.24630090598368737	0.9345296701358023	0.12902806314393486	0.26321710906256635	0.9092127009808698	0.12169706157262662	0.28028229200977867	0.845593401502281	0.2589095677475064	-0.04000974092293952	1.4508813353934145	0.3876970381522044	-0.13135994308206467	1.2044354115757803	0.362858574054838	-0.1371937532188742	0.9831866095646994	0.22156899975599775	-0.08019045989124751	0.8838462444563778	0.18915737358935508	-0.10919226580344055	0.8771868172042242	0.1565715684226678	-0.14693950743151232	0.8584839691652726	0.20351623566480856	
214	3.6271186440677967	0.21327895809847425	0.9876578399437483	0.4112381798514082	0.20667521587902102	0.5103782840704443	0.4135014472711883	0.1528036089689252	0.06463707484200668	0.4858658976842215	0.1699431354631224	0.08802456452723631	0.26305094204395413	0.2140014541000546	0.07843692608366949	0.3030992423883482	0.14487010451365276	0.012910929673369338	0.5136811767533306	-0.015387907964990073	1.0036755632337906	0.38556718226988435	-0.017317944577342495	0.5171867926327188	0.39294340795803545	-0.01698374894029802	0.09071586912482335	0.4263137778618016	0.02052356432400199	0.09728169886634741	0.23619852483464246	-0.04514163379229626	0.0919153580358614	0.28217154361652264	-0.005382843727129748	0.025001268960570228	0.5018222195681832	0.11546638663604157	1.5299102117401644	0.391742156921949	0.14018744350472778	1.7740073884313117	0.30078526801171573	0.13787391362199042	1.6386276624777958	0.276077662844962	0.28832493991403424	1.442722872257127	0.3973822723501685	0.3222044479532648	1.1758278112066056	0.418493869643453	0.3137392642356016	1.0031643654502005	0.2319743040050173	0.23775431187145546	0.9393046209439047	0.11128470300506706	0.253772380786632	0.9096869691822325	0.11064799936479915	0.2781605416326585	0.84572143215102	0.2287693277572235	-0.039906776521744874	1.4508648916164648	0.38777357680612246	-0.13067723221400349	1.2035820525866558	0.35742722121371956	-0.12462017839980982	0.982814200297681	0.2075257796246857	-0.06665657240298446	0.8846030764356511	0.18537586187018115	-0.09410792588303549	0.8813017266137373	0.1456301745381373	-0.13401653793658236	0.8605787894690831	0.192820898319139	
215	3.6440677966101696	0.212170706242605	0.9874300027412539	0.4110645561497906	0.20701775851720552	0.5096163274601507	0.4137416236827614	0.15286965153806728	0.06447681657776023	0.48594504620768664	0.17027830682351144	0.08834305377474681	0.26255390217546665	0.2146549852741353	0.07664914418590811	0.303334577611935	0.14474996482547262	0.012437081229476322	0.5141332100481001	-0.01621901537323321	1.0032515362896792	0.3862105647780644	-0.017056277566970528	0.5153772549056409	0.3935510209118185	-0.01678915713959889	0.08992060755572982	0.4265487750722174	0.0204758334910392	0.09723160034421051	0.23631206456671527	-0.04512902604691264	0.0921005525622661	0.2824216161439145	-0.005367092195752678	0.025047726472741984	0.5019290953122796	0.11549170837753772	1.5298758485647919	0.39176327295502394	0.14019074135095133	1.7740912740993342	0.3007690201683938	0.13786700769477514	1.6385959297747352	0.27608598184705974	0.2877251560313483	1.4430212848209683	0.39516072420542736	0.3215945448928245	1.1762196693913194	0.41260109993006633	0.3072054051480657	1.004270572978112	0.22333626604348697	0.22590446012783116	0.9430325922458122	0.09650454100367604	0.24055365588268474	0.9105840295188443	0.10099795611320363	0.2744119990930463	0.851125819848034	0.19217228756025637	-0.039842384898025926	1.4508556273107267	0.3877912702370505	-0.12911567685142755	1.2030010997568066	0.3512168967217631	-0.11205864979322526	0.9828953376173077	0.19342806345407415	-0.05223701146320578	0.8850801315338999	0.18131825868592635	-0.07871843394181817	0.8848543542275289	0.1362940803747396	-0.11975202962397906	0.8636510500007107	0.17962855260044866	
216	3.6610169491525424	0.21112740286636017	0.9868817552280792	0.4106101615496502	0.2073820679831665	0.5086643437344425	0.4140390202060165	0.1529375328828064	0.06432550433744445	0.4860449399843252	0.17035799070286	0.0894306047002555	0.2606274725635735	0.21553077652180966	0.07518382951910597	0.30371397094506186	0.14452772217516052	0.01137326129678868	0.5155083446542951	-0.016729060702251917	1.001960787534509	0.38694490562412986	-0.01688339199635103	0.5135675376146455	0.39394665742850404	-0.016583845160402223	0.08934114730389345	0.4266643288496775	0.02053685921507615	0.09715843896354255	0.23649267777987718	-0.04495831129840981	0.09272363182343915	0.28230618381111916	-0.005344960853944822	0.02501623506529982	0.5019533522530202	0.11552621849833723	1.5298497170603715	0.39175084805110505	0.1401896164170231	1.774192446645694	0.3007699694158372	0.1378605251816059	1.6385705502227446	0.27608787410122493	0.2872724002301822	1.4431300840285515	0.3934739074110449	0.3210115271962566	1.1763705761148537	0.4062187009065021	0.2973652303617448	1.0046678196764607	0.2171302150549369	0.21149892842091478	0.945181767046777	0.08610871937585284	0.22468891997301993	0.9119470477115648	0.09260991953030104	0.2677560261310518	0.8605939316918942	0.15355079906125813	-0.0398182039887371	1.4508547781959447	0.3877648403538681	-0.1268966535342124	1.2026430474623035	0.3450522240995809	-0.10016575141829331	0.9822822009076599	0.18263166206226042	-0.03731260470148252	0.8856933112188735	0.17622246507033812	-0.06326167358772584	0.8869799868082467	0.13020354265894157	-0.10463067564665425	0.867543335277405	0.1663958539802489	
217	3.6779661016949152	0.21018186745251222	0.9861618982655478	0.410026658708158	0.20774104358560846	0.507561433964518	0.4143444105428576	0.15301285743721244	0.06418132496496526	0.4861601116090244	0.1702029171654225	0.09111670410435688	0.2577708699349319	0.21651712473211032	0.07430268655147088	0.30424486320005095	0.14422272943622413	0.00994147484634783	0.5176979219956845	-0.01691364750388287	0.9999655051215044	0.38784081945868665	-0.016809855534106525	0.5117876053421513	0.39412504131262993	-0.016454750589645958	0.0889517514532705	0.42662729597645516	0.02076145464708288	0.09717503813621116	0.23655501988559985	-0.044448860642991465	0.0935222299494338	0.28230787905243154	-0.0053590493641643006	0.02493694457973626	0.5019028835425213	0.11555887935184235	1.5298324656693882	0.39171429958539394	0.14020160487195427	1.7742450567880552	0.30076306005001685	0.13785459968106867	1.6385536628641142	0.27608725647535576	0.2870045736614275	1.4431682703801443	0.3925226907453221	0.32038146344923135	1.1763898639563717	0.3995756545363913	0.285192945260406	1.0047503366939066	0.21219176272661155	0.19543988099100562	0.9453651546951087	0.08098350191955694	0.20746270821319068	0.9139522678346736	0.08521270745210324	0.2580339355835063	0.8715212084206604	0.11873114270363883	-0.03981023486419887	1.450859707707852	0.3877197516004174	-0.12432018056201821	1.2021479248657776	0.33974594845170764	-0.08889886975257985	0.9803203373092972	0.1774355236047264	-0.02270480169822838	0.8867290376108236	0.17041485716096927	-0.04799686395136484	0.8873344127659487	0.12779369205542307	-0.08868911982827765	0.8713396262167827	0.15568276854064156	
